<svg width="1392" height="198" viewBox="0 0 1392 198" fill="none" xmlns="http://www.w3.org/2000/svg">
<g clip-path="url(#clip0_693_182)">
<path d="M147.512 1.63573V148.254C147.512 151.09 148.385 153.545 150.132 155.618C150.787 156.6 151.607 157.473 152.59 158.236C153.682 158.891 154.938 159.382 156.358 159.709C157.669 160.145 158.98 160.363 160.29 160.363C163.785 160.363 166.735 159.327 169.138 157.255C171.65 155.073 172.905 152.072 172.905 148.254V1.63573H211.408V148.254C211.408 160.472 208.458 170.618 202.56 178.691C199.502 182.836 195.952 186.327 191.911 189.163C187.87 191.89 183.118 194.073 177.657 195.709C172.415 197.236 166.625 198 160.29 198C153.628 198 147.675 197.236 142.432 195.709C137.299 194.073 132.711 191.89 128.67 189.163C120.15 183.381 114.362 175.308 111.304 164.945C109.775 159.818 109.01 154.254 109.01 148.254V1.63573H147.512Z" fill="#F91914"/>
<path d="M414.934 0.0129032C423.465 0.14071 431.468 1.22706 438.943 3.27246C447.025 5.45423 454.617 8.67271 461.716 12.927C468.16 16.8543 474.114 21.8185 479.575 27.8184C485.146 33.8183 489.733 40.7462 493.337 48.6005C495.084 52.4186 496.56 56.4006 497.761 60.5459C499.072 64.6912 500.054 69.0551 500.71 73.6367H461.389C460.734 70.1459 459.423 66.491 457.457 62.673C455.6 58.7458 452.979 55.0362 449.593 51.5454C443.477 45.5455 436.049 41.4543 427.311 39.2725C423.113 38.2497 418.722 37.7065 414.14 37.6427L413.222 37.6367C406.996 37.6367 400.988 38.6182 395.2 40.5816C389.411 42.4361 384.276 45.1634 379.798 48.7633C370.514 56.2905 364.125 66.3272 360.63 78.8725C358.882 85.1996 358.009 92.0181 358.009 99.3271C358.009 106.963 358.937 113.946 360.793 120.273C362.76 126.6 365.162 131.891 368.002 136.146C370.951 140.837 374.611 145.036 378.979 148.745C383.458 152.454 388.755 155.346 394.872 157.418C400.551 159.382 406.723 160.364 413.386 160.364C418.191 160.364 422.833 159.818 427.311 158.728C431.789 157.637 435.94 156.109 439.763 154.146C443.367 152.291 446.753 149.946 449.92 147.11C453.197 144.164 455.928 140.836 458.112 137.128C460.16 133.855 461.824 130.246 463.104 126.303L463.355 125.51H413.386V92.7821H503.986V117.164C503.986 125.891 502.402 134.292 499.235 142.364C496.068 150.328 491.644 157.691 485.964 164.455C480.285 171.218 473.622 177.11 465.977 182.128C458.331 187.146 449.975 191.019 440.91 193.746C431.626 196.582 422.014 198 412.075 198C401.48 198 391.486 196.418 382.093 193.255C372.7 189.982 364.18 185.4 356.534 179.51C350.199 174.601 344.028 168.164 338.02 160.201C332.013 152.237 327.371 142.527 324.095 131.073C321.036 120.818 319.508 110.128 319.508 99.0005C319.508 87.5459 320.927 76.9637 323.767 67.2546C326.716 57.4365 330.867 48.4368 336.219 40.2551C342.226 30.9824 349.271 23.4542 357.353 17.6725C365.545 11.8908 373.628 7.63641 381.601 4.90918C386.407 3.38203 391.431 2.18188 396.673 1.30918C402.025 0.436503 407.542 0 413.222 0L414.934 0.0129032Z" fill="#F91914"/>
<path fill-rule="evenodd" clip-rule="evenodd" d="M1141.22 0C1152.25 7.86273e-05 1162.63 1.74589 1172.35 5.23672C1182.07 8.61853 1190.97 13.1999 1199.05 18.9816C1208.34 25.8543 1215.87 33.5456 1221.66 42.0546C1227.45 50.4544 1231.76 58.8001 1234.6 67.0908C1236.24 71.9999 1237.5 77.0187 1238.37 82.1459C1239.25 87.2731 1239.68 92.5097 1239.68 97.8551C1239.68 108.546 1237.99 118.964 1234.6 129.11C1231.33 139.255 1226.69 148.528 1220.68 156.928C1214.56 165.219 1207.3 172.474 1198.89 178.692C1190.59 184.801 1181.68 189.492 1172.18 192.764C1162.24 196.255 1151.92 198 1141.22 198C1130.3 198 1119.92 196.255 1110.09 192.764C1100.26 189.273 1091.3 184.528 1083.22 178.528C1075.03 172.419 1067.87 165.273 1061.76 157.091C1055.75 148.909 1051.05 139.637 1047.67 129.273C1046.03 124.364 1044.77 119.291 1043.9 114.055C1043.14 109.435 1042.71 104.775 1042.61 100.074C1042.39 109.989 1040.71 119.668 1037.56 129.11C1034.28 139.255 1029.64 148.528 1023.63 156.928C1017.52 165.219 1010.25 172.474 1001.84 178.692C993.542 184.801 984.64 189.492 975.137 192.764C965.198 196.255 954.876 198 944.173 198C933.25 198 922.873 196.255 913.043 192.764C903.213 189.273 894.257 184.528 886.174 178.528C877.983 172.419 870.828 165.273 864.711 157.091C858.704 148.909 854.007 139.637 850.621 129.273C848.983 124.364 847.727 119.291 846.853 114.055C845.979 108.709 845.542 103.309 845.542 97.8551C845.542 87.0551 847.236 76.8546 850.621 67.2546C854.007 57.5457 858.759 48.5458 864.875 40.2551C870.882 32.0734 878.037 24.9816 886.338 18.9816C894.748 12.9819 903.759 8.34558 913.371 5.07295C918.177 3.43666 923.147 2.18189 928.28 1.30918C933.523 0.436536 938.821 0 944.173 0C955.204 0.000104832 965.581 1.74592 975.301 5.23672C985.022 8.61852 993.924 13.2 1002.01 18.9816C1011.29 25.8543 1018.83 33.5456 1024.62 42.0546C1030.4 50.4544 1034.72 58.8001 1037.56 67.0908C1039.2 71.9999 1040.45 77.0187 1041.33 82.1459C1042.08 86.5724 1042.51 91.0804 1042.61 95.6695C1042.83 85.6764 1044.51 76.2047 1047.67 67.2546C1051.05 57.5457 1055.8 48.5459 1061.92 40.2551C1067.93 32.0734 1075.08 24.9816 1083.38 18.9816C1091.79 12.9819 1100.8 8.3456 1110.42 5.07295C1115.22 3.43666 1120.19 2.18189 1125.33 1.30918C1130.57 0.436504 1135.87 0 1141.22 0ZM944.336 37.6367C939.093 37.6368 933.414 38.5098 927.297 40.2551C921.181 41.8914 915.064 44.9458 908.948 49.4184C903.923 53.1274 899.5 57.4912 895.677 62.5092C891.963 67.5272 889.123 73.0364 887.157 79.0362C886.174 82.0906 885.41 85.2545 884.864 88.5271C884.318 91.6906 884.044 94.909 884.044 98.1816C884.044 104.836 885.082 111.382 887.157 117.818C889.233 124.255 892.072 129.928 895.677 134.837C899.609 140.291 904.087 144.927 909.112 148.745C914.136 152.454 919.542 155.236 925.331 157.091C931.447 159.273 937.782 160.364 944.336 160.364C950.889 160.364 957.17 159.327 963.177 157.255C969.184 155.073 974.646 152.073 979.561 148.255C984.475 144.546 988.79 140.128 992.503 135.001C996.217 129.764 999.057 124.036 1001.02 117.818C1002.01 114.764 1002.77 111.6 1003.32 108.328C1003.86 105.055 1004.14 101.673 1004.14 98.1816C1004.14 91.7455 1003.1 85.4727 1001.02 79.3638C998.948 73.1457 996.108 67.582 992.503 62.673C984.858 52.3095 975.028 45 963.013 40.7454C957.006 38.6727 950.78 37.6368 944.336 37.6367ZM1141.38 37.6367C1136.14 37.6367 1130.46 38.5097 1124.34 40.2551C1118.23 41.8914 1112.11 44.9458 1105.99 49.4184C1100.97 53.1274 1096.54 57.4911 1092.72 62.5092C1089.01 67.5273 1086.17 73.0364 1084.2 79.0362C1083.22 82.0906 1082.45 85.2545 1081.91 88.5271C1081.36 91.6906 1081.09 94.909 1081.09 98.1816C1081.09 104.836 1082.13 111.382 1084.2 117.818C1086.28 124.255 1089.12 129.928 1092.72 134.837C1096.65 140.291 1101.13 144.927 1106.16 148.745C1111.18 152.454 1116.59 155.236 1122.38 157.091C1128.49 159.272 1134.83 160.364 1141.38 160.364C1147.93 160.364 1154.22 159.327 1160.22 157.255C1166.23 155.073 1171.69 152.073 1176.61 148.255C1181.52 144.546 1185.84 140.128 1189.55 135.001C1193.26 129.764 1196.1 124.036 1198.07 117.818C1199.05 114.764 1199.82 111.6 1200.36 108.328C1200.91 105.055 1201.18 101.673 1201.18 98.1816C1201.18 91.7455 1200.14 85.4727 1198.07 79.3638C1195.99 73.1458 1193.15 67.5819 1189.55 62.673C1181.9 52.3094 1172.07 45 1160.06 40.7454C1154.05 38.6728 1147.83 37.6368 1141.38 37.6367Z" fill="#F91914"/>
<path fill-rule="evenodd" clip-rule="evenodd" d="M56.3604 1.63573C61.9305 1.63577 67.1191 2.3447 71.9248 3.76278C76.8397 5.07187 81.1551 7.03549 84.8686 9.6536C88.4727 12.3807 91.531 15.5447 94.043 19.1444C96.6643 22.7443 98.7946 27.1629 100.433 32.399C101.088 34.9081 101.579 37.5269 101.907 40.2541C102.234 42.9813 102.399 45.8179 102.399 48.7633C102.399 61.9631 99.449 71.9451 93.5511 78.7087C87.653 85.3631 78.1504 89.7814 65.0439 91.9633V94.5816C70.1772 95.2362 74.874 96.3816 79.1335 98.0179C83.5023 99.6542 87.3807 101.945 90.7666 104.89C94.0431 107.727 96.8285 111.164 99.1221 115.2C101.416 119.236 103.054 123.491 104.037 127.963C105.129 132.872 105.675 138.327 105.675 144.327C105.675 150.654 104.965 156.545 103.545 162C102.235 167.454 100.214 172.309 97.4834 176.564C94.5346 181.036 91.0939 184.745 87.1622 187.69C83.2302 190.527 78.9148 192.654 74.2184 194.072C69.1943 195.6 63.7329 196.363 57.8352 196.363H0V1.63573H56.3604ZM38.5024 160.363H48.4967C53.193 160.363 57.0707 159.054 60.1288 156.436C61.7669 155.127 63.0782 153.545 64.0611 151.69C65.044 149.727 65.8086 147.545 66.3547 145.145C66.9008 142.527 67.1736 139.854 67.1736 137.127C67.1735 134.509 66.846 131.945 66.1907 129.436C65.6446 126.818 64.8801 124.581 63.8971 122.727C61.6035 118.8 58.599 116.236 54.8857 115.036C53.0426 114.423 51.0551 114.097 48.9241 114.059L48.4967 114.055H38.5024V160.363ZM38.5024 78.0536H46.5301C51.008 78.0535 54.6675 76.8535 57.5072 74.4536C58.8177 73.3628 59.9109 72.0542 60.7847 70.527C61.7676 68.9999 62.5869 67.0906 63.2422 64.8C63.4607 63.7091 63.6239 62.6174 63.7332 61.5266C63.8424 60.3266 63.8971 59.1265 63.8971 57.9266C63.8971 52.9086 62.9135 48.7088 60.9476 45.327C59.9647 43.7999 58.763 42.4357 57.3432 41.2357C55.9235 39.9269 54.3394 38.999 52.5921 38.4536C50.7764 37.9764 49.0016 37.7083 47.2694 37.6486L46.5301 37.6357H38.5024V78.0536Z" fill="#F91914"/>
<path fill-rule="evenodd" clip-rule="evenodd" d="M276.878 1.63573C282.12 1.63581 287.145 2.45408 291.95 4.09032C296.865 5.61757 301.289 7.90843 305.221 10.9628C309.153 14.1263 312.43 17.7266 315.051 21.7628C317.782 25.7991 319.912 30.4362 321.441 35.6725C322.861 41.0178 323.571 46.5816 323.571 52.3633C323.571 62.0722 321.55 70.3631 317.509 77.2357C315.652 80.5083 313.359 83.3997 310.628 85.9087C308.007 88.4177 304.73 90.5454 300.798 92.2908C297.084 93.818 293.097 94.7993 288.838 95.2357V97.8541C292.77 97.8542 296.757 99.1089 300.798 101.618C304.621 104.127 307.624 107.455 309.808 111.6C310.354 112.691 310.792 113.782 311.119 114.872C311.556 115.963 311.938 117.054 312.266 118.145L331.763 196.363H293.261L270.488 114.055H258.036V196.363H219.535V1.63573H276.878ZM258.036 78.0536H267.048C269.123 78.0536 271.089 77.7811 272.946 77.2357C274.911 76.6903 276.714 75.8173 278.353 74.6174C281.192 72.3265 283.213 69.054 284.415 64.8C284.852 62.9455 285.07 60.6538 285.07 57.9266C285.07 51.7086 283.486 46.799 280.318 43.199C277.25 39.6061 273.002 37.7531 267.576 37.6407L267.048 37.6357H258.036V78.0536Z" fill="#F91914"/>
<path d="M589.926 37.6357H547.329V74.7811H586.65V110.781H547.329V160.363H590.746V196.363H508.828V1.63573H589.926V37.6357Z" fill="#F91914"/>
<path fill-rule="evenodd" clip-rule="evenodd" d="M652.977 1.63573C658.22 1.63578 663.245 2.45401 668.051 4.09032C672.966 5.61761 677.39 7.90838 681.322 10.9628C685.253 14.1263 688.531 17.7265 691.152 21.7628C693.882 25.7991 696.012 30.4362 697.541 35.6725C698.961 41.0178 699.67 46.5816 699.67 52.3633C699.67 62.0722 697.65 70.3631 693.609 77.2357C691.752 80.5083 689.458 83.3997 686.728 85.9087C684.106 88.4176 680.829 90.5454 676.897 92.2908C673.184 93.8179 669.197 94.7994 664.937 95.2357V97.8541C668.869 97.8542 672.856 99.109 676.897 101.618C680.72 104.127 683.724 107.455 685.909 111.6C686.455 112.691 686.892 113.782 687.22 114.872C687.656 115.963 688.039 117.054 688.366 118.145L707.863 196.363H669.362L646.589 114.055H634.137V196.363H595.635V1.63573H652.977ZM634.137 78.0536H643.147C645.222 78.0536 647.189 77.7811 649.045 77.2357C651.011 76.6903 652.814 75.8173 654.452 74.6174C657.292 72.3266 659.313 69.0541 660.514 64.8C660.951 62.9455 661.169 60.6538 661.169 57.9266C661.169 51.7086 659.585 46.799 656.418 43.199C653.349 39.6062 649.102 37.7531 643.676 37.6407L643.147 37.6357H634.137V78.0536Z" fill="#F91914"/>
<path fill-rule="evenodd" clip-rule="evenodd" d="M799.37 1.63573C804.94 1.63577 810.129 2.34473 814.934 3.76278C819.849 5.07187 824.165 7.03549 827.878 9.6536C831.482 12.3807 834.541 15.5447 837.053 19.1444C839.674 22.7443 841.804 27.1629 843.443 32.399C844.098 34.9081 844.59 37.5269 844.917 40.2541C845.245 42.9813 845.408 45.8179 845.408 48.7633C845.408 61.9629 842.459 71.9451 836.562 78.7087C830.664 85.3632 821.16 89.7814 808.054 91.9633V94.5816C813.187 95.2362 817.885 96.3815 822.144 98.0179C826.513 99.6542 830.39 101.945 833.776 104.89C837.053 107.727 839.838 111.164 842.132 115.2C844.425 119.236 846.064 123.491 847.047 127.963C848.139 132.872 848.685 138.327 848.685 144.327C848.685 150.654 847.975 156.545 846.555 162C845.244 167.454 843.223 172.309 840.493 176.564C837.544 181.036 834.103 184.745 830.172 187.69C826.24 190.527 821.925 192.654 817.229 194.072C812.205 195.6 806.743 196.363 800.845 196.363H743.011V1.63573H799.37ZM781.512 160.363H791.506C796.203 160.363 800.08 159.054 803.138 156.436C804.777 155.127 806.088 153.545 807.071 151.69C808.054 149.727 808.818 147.545 809.364 145.145C809.91 142.527 810.183 139.854 810.183 137.127C810.183 134.509 809.856 131.945 809.2 129.436C808.654 126.818 807.89 124.581 806.907 122.727C804.613 118.8 801.609 116.236 797.896 115.036C796.053 114.423 794.065 114.097 791.934 114.059L791.506 114.055H781.512V160.363ZM781.512 78.0536H789.541C794.018 78.0534 797.677 76.8534 800.517 74.4536C801.827 73.3628 802.921 72.0542 803.794 70.527C804.777 68.9999 805.597 67.0906 806.252 64.8C806.47 63.7091 806.634 62.6174 806.743 61.5266C806.852 60.3266 806.907 59.1265 806.907 57.9266C806.907 52.9088 805.924 48.7087 803.958 45.327C802.975 43.8 801.774 42.4356 800.354 41.2357C798.934 39.9268 797.35 38.9991 795.603 38.4536C793.787 37.9764 792.012 37.7083 790.28 37.6486L789.541 37.6357H781.512V78.0536Z" fill="#F91914"/>
<path d="M1298.78 1.63573L1311.23 79.5266C1311.99 84.4356 1312.65 89.8362 1313.2 95.7271C1313.85 101.509 1314.4 107.836 1314.83 114.709C1315.16 119.945 1315.38 124.473 1315.49 128.291C1315.71 132 1315.87 135.763 1315.98 139.581C1316.09 143.29 1316.25 147.873 1316.47 153.327C1316.58 156.6 1316.64 159.763 1316.64 162.818V171.818H1319.91C1319.91 165.818 1319.97 159.654 1320.08 153.327C1320.29 147 1320.51 140.563 1320.73 134.018C1320.95 127.145 1321.28 120.654 1321.71 114.545C1322.15 108.327 1322.7 102.217 1323.35 96.2174C1323.68 93.2721 1324.01 90.4353 1324.34 87.7082C1324.66 84.872 1325.05 82.1446 1325.48 79.5266L1337.77 1.63573H1392V196.363H1353.5V173.29C1353.5 164.781 1353.72 155.4 1354.15 145.145C1354.59 134.782 1355.19 124.745 1355.96 115.036C1356.72 104.673 1357.54 94.4174 1358.41 84.272C1359.29 74.1266 1360.27 64.09 1361.36 54.1628C1361.8 49.2538 1362.29 44.4536 1362.84 39.7628C1363.06 37.4175 1363.27 35.1131 1363.49 32.8496L1364.15 26.1816H1360.87C1360.22 32.9451 1359.51 39.3272 1358.74 45.327C1357.98 51.327 1357.16 57.3818 1356.28 63.4908C1355.52 69.5998 1354.65 76.3636 1353.66 83.7816C1352.79 89.9997 1351.75 96.6542 1350.55 103.745C1349.46 110.836 1348.31 117.873 1347.11 124.855C1345.91 131.836 1344.76 138.273 1343.67 144.164C1342.79 148.964 1341.92 153.655 1341.05 158.236C1340.06 162.818 1339.14 167.291 1338.26 171.655L1333.02 196.363H1303.53L1298.29 171.655C1296.98 165.109 1295.72 158.945 1294.52 153.163C1293.43 147.382 1292.33 141.436 1291.24 135.327C1290.15 129.109 1289 122.127 1287.8 114.381C1285.83 102.599 1284.09 91.5815 1282.56 81.3271C1281.03 70.9634 1279.83 61.8536 1278.95 53.999C1278.3 49.1992 1277.7 44.4535 1277.15 39.7628C1276.74 36.2448 1276.36 32.8188 1276.01 29.4849L1275.68 26.1816H1272.4C1273.27 34.5815 1274.2 43.636 1275.18 53.3449C1276.17 63.0539 1277.15 73.363 1278.13 84.272C1278.79 92.1265 1279.34 99.1635 1279.77 105.382C1280.32 111.6 1280.81 117.818 1281.25 124.036C1281.68 130.254 1282.07 137.291 1282.39 145.145C1282.83 154.854 1283.05 164.236 1283.05 173.29V196.363H1244.55V1.63573H1298.78Z" fill="#F91914"/>
</g>
<defs>
<clipPath id="clip0_693_182">
<rect width="1392" height="198" fill="white"/>
</clipPath>
</defs>
</svg>
