<svg width="1392" height="314" viewBox="0 0 1392 314" fill="none" xmlns="http://www.w3.org/2000/svg">
<path fill-rule="evenodd" clip-rule="evenodd" d="M193.103 0L318.001 314H250.427L224.692 246.595H93.3086L67.5762 314H0L125.108 0H193.103ZM114.439 190.074H203.771L159.001 73.6855L114.439 190.074Z" fill="#EFEDEA"/>
<path fill-rule="evenodd" clip-rule="evenodd" d="M445.754 0C470.999 0 492.617 3.97799 510.609 11.9326C528.601 19.8872 542.34 31.4 551.824 46.4717C561.448 61.4041 566.26 79.3383 566.26 100.271C566.26 121.762 561.17 140.114 550.988 155.325C540.946 170.397 526.58 181.701 507.891 189.237L580.067 314H508.728L442.825 200.541H382.99V314H318.554V0H445.754ZM382.99 149.255H440.942C460.05 149.255 474.695 145.277 484.877 137.322C495.198 129.228 500.358 117.715 500.358 102.783C500.358 88.0845 495.358 76.7658 485.357 68.8281L484.396 68.0762C474.559 60.4819 460.667 56.5644 442.721 56.3232L440.942 56.3115H382.99V149.255Z" fill="#EFEDEA"/>
<path fill-rule="evenodd" clip-rule="evenodd" d="M687.108 0C725.045 1.77017e-05 757.892 6.41969 785.647 19.2588C813.403 32.0979 834.881 50.2404 850.084 73.6855C865.287 97.1308 872.888 124.902 872.888 157C872.888 188.958 865.287 216.73 850.084 240.314C834.881 263.76 813.403 281.902 785.647 294.741C757.892 307.58 725.045 314 687.108 314H584.386V0H687.108ZM648.823 257.689H689.41C714.515 257.689 735.785 253.782 753.219 245.967C770.792 238.012 784.113 226.569 793.179 211.637C802.384 196.565 806.986 178.352 806.986 157C806.986 135.509 802.384 117.297 793.179 102.364C784.113 87.4319 770.792 76.0573 753.219 68.2422C736.33 60.5363 715.841 56.5641 691.753 56.3232L689.41 56.3115H648.823V257.689Z" fill="#EFEDEA"/>
<path d="M1085.79 56.3115H947.71V127.693H1077.21V184.213H947.71V257.689H1087.88V314H883.272V0H1085.79V56.3115Z" fill="#EFEDEA"/>
<path d="M1180.91 0L1327.56 214.776V0H1392V314H1317.94L1171.28 99.6426V314H1106.84V0H1180.91Z" fill="#EFEDEA"/>
</svg>
